<svg xmlns="http://www.w3.org/2000/svg" viewBox="0 0 512 512">
  <defs>
    <linearGradient id="grad1" x1="0%" y1="0%" x2="100%" y2="100%">
      <stop offset="0%" style="stop-color:#3b82f6;stop-opacity:1" />
      <stop offset="100%" style="stop-color:#2dd4bf;stop-opacity:1" />
    </linearGradient>
  </defs>
  <rect x="0" y="0" width="512" height="512" rx="128" fill="#0f172a" />
  <path d="M256 96C167.6 96 96 167.6 96 256s71.6 160 160 160 160-71.6 160-160S344.4 96 256 96zm0 288c-70.7 0-128-57.3-128-128s57.3-128 128-128 128 57.3 128 128-57.3 128-128 128z" fill="url(#grad1)" opacity="0.2"/>
  <path d="M368 232H280V144c0-13.3-10.7-24-24-24s-24 10.7-24 24v88H144c-13.3 0-24 10.7-24 24s10.7 24 24 24h88v88c0 13.3 10.7 24 24 24s24-10.7 24-24v-88h88c13.3 0 24-10.7 24-24s-10.7-24-24-24z" fill="url(#grad1)"/>
  <path d="M160 256h40l20-40 40 80 40-60 20 20h40" stroke="white" stroke-width="16" stroke-linecap="round" stroke-linejoin="round" fill="none" opacity="0.8" transform="translate(0, 10)"/>
</svg>